<svg width="443" height="54" viewBox="0 0 443 54" fill="none" xmlns="http://www.w3.org/2000/svg">
<path d="M87.161 36.6637L74.1276 47.206H62.9949L113.907 6.55957H127.212L116.893 47.3231H106.304L108.883 36.7808L87.161 36.6637ZM111.056 30.8069C113.364 22.0216 115.128 15.9305 116.35 12.4164H116.215C111.734 16.2819 103.724 22.9587 94.085 30.8069H111.056Z" fill="black"/>
<path d="M142.417 7.96528L136.308 32.7983C134.543 40.1779 138.208 43.1063 144.454 43.1063C151.649 43.1063 154.229 40.295 155.994 33.1497L162.239 7.84814H170.52L164.139 33.7353C161.56 44.0434 156.401 48.846 143.639 48.846C132.778 48.846 125.039 44.3948 128.026 32.3297L134.135 7.96528H142.417Z" fill="black"/>
<path d="M185.998 13.8221H172.014L173.507 7.84814H209.756L208.263 13.8221H194.279L185.862 48.2603H177.58L185.998 13.8221Z" fill="black"/>
<path d="M278.589 18.2734H265.148L267.728 8.08252H308.729L306.149 18.2734H292.844L285.513 48.3775H271.258L278.589 18.2734Z" fill="black"/>
<path d="M409.059 8.08252H423.314L415.983 38.1866H426.573L422.228 48.3775H399.284L409.059 8.08252Z" fill="black"/>
<path d="M327.736 7.96533C314.838 7.96533 304.384 16.9848 304.384 28.1128C304.384 39.2408 314.838 48.2603 327.736 48.2603C340.633 48.2603 351.087 39.2408 351.087 28.1128C351.087 16.9848 340.633 7.96533 327.736 7.96533ZM327.736 37.8352C321.491 37.8352 316.467 33.5011 316.467 28.1128C316.467 22.7245 321.491 18.3905 327.736 18.3905C333.981 18.3905 339.004 22.7245 339.004 28.1128C339.004 33.5011 333.845 37.8352 327.736 37.8352Z" fill="black"/>
<path d="M377.561 7.96533C364.664 7.96533 354.21 16.9848 354.21 28.1128C354.21 39.2408 364.664 48.2603 377.561 48.2603C390.459 48.2603 400.913 39.2408 400.913 28.1128C400.913 16.9848 390.459 7.96533 377.561 7.96533ZM377.561 37.8352C371.316 37.8352 366.293 33.5011 366.293 28.1128C366.293 22.7245 371.316 18.3905 377.561 18.3905C383.807 18.3905 388.83 22.7245 388.83 28.1128C388.83 33.5011 383.671 37.8352 377.561 37.8352Z" fill="black"/>
<path d="M443 48.3774H426.573L430.917 38.0693H443V48.3774Z" fill="black"/>
<path d="M31.3616 0C14.1195 0 0 12.0651 0 27.0586C0 41.9349 13.9838 54 31.3616 54C48.6038 54 62.7233 41.9349 62.7233 26.9414C62.7233 12.0651 48.6038 0 31.3616 0ZM51.4548 16.5163H35.163L37.6068 7.0282C43.4447 8.43384 48.3322 11.9479 51.4548 16.5163ZM27.1529 6.67679L22.8085 24.013H8.41741C9.77506 15.1106 17.3779 8.19957 27.1529 6.67679ZM8.96047 32.7983H20.5005L17.7852 43.8091C13.5765 41.115 10.4539 37.2495 8.96047 32.7983ZM27.2887 47.3232L32.855 25.3015H37.4711L31.7689 47.5575C31.6332 47.5575 31.4974 47.5575 31.2259 47.5575C30.004 47.6746 28.6463 47.5575 27.2887 47.3232ZM43.0374 44.8633L47.9249 25.3015H54.5774C54.5774 25.8872 54.7132 26.3557 54.7132 26.9414C54.5774 34.6725 49.9614 41.3492 43.0374 44.8633Z" fill="black"/>
<path d="M226.455 7.96533C213.558 7.96533 203.104 16.9848 203.104 28.1128C203.104 39.2408 213.558 48.2603 226.455 48.2603C239.353 48.2603 249.807 39.2408 249.807 28.1128C249.943 16.9848 239.353 7.96533 226.455 7.96533ZM226.455 42.4035C217.359 42.4035 209.892 35.961 209.892 28.1128C209.892 20.2647 217.359 13.8222 226.455 13.8222C235.552 13.8222 243.019 20.2647 243.019 28.1128C243.019 35.961 235.687 42.4035 226.455 42.4035Z" fill="black"/>
</svg>
