<svg width="280" height="35" viewBox="0 0 280 35" fill="none" xmlns="http://www.w3.org/2000/svg">
<path d="M54.9503 23.5213L46.7334 30.2016H39.7148L71.812 4.44562H80.2L73.695 30.2758H67.0188L68.645 23.5956L54.9503 23.5213ZM70.0145 19.8101C71.4696 14.2433 72.5823 10.3836 73.3526 8.15685H73.267C70.4425 10.6063 65.3925 14.8371 59.3155 19.8101H70.0145Z" fill="white"/>
<path d="M89.7863 5.33631L85.9346 21.0719C84.8219 25.7481 87.1329 27.6037 91.0702 27.6037C95.6066 27.6037 97.2328 25.8223 98.3455 21.2946L102.283 5.26208H107.504L103.481 21.6657C101.855 28.1975 98.6023 31.2407 90.5566 31.2407C83.7092 31.2407 78.8305 28.4202 80.7135 20.775L84.5652 5.33631H89.7863Z" fill="white"/>
<path d="M117.261 9.04754H108.445L109.387 5.26208H132.24L131.299 9.04754H122.483L117.176 30.8696H111.955L117.261 9.04754Z" fill="white"/>
<path d="M175.636 11.8681H167.162L168.788 5.41058H194.637L193.011 11.8681H184.623L180.001 30.9438H171.014L175.636 11.8681Z" fill="white"/>
<path d="M257.89 5.41058H266.877L262.255 24.4863H268.931L266.192 30.9438H251.727L257.89 5.41058Z" fill="white"/>
<path d="M206.62 5.33636C198.489 5.33636 191.898 11.0517 191.898 18.103C191.898 25.1543 198.489 30.8696 206.62 30.8696C214.751 30.8696 221.342 25.1543 221.342 18.103C221.342 11.0517 214.751 5.33636 206.62 5.33636ZM206.62 24.2636C202.683 24.2636 199.516 21.5173 199.516 18.103C199.516 14.6887 202.683 11.9424 206.62 11.9424C210.557 11.9424 213.724 14.6887 213.724 18.103C213.724 21.5173 210.471 24.2636 206.62 24.2636Z" fill="white"/>
<path d="M238.032 5.33636C229.901 5.33636 223.31 11.0517 223.31 18.103C223.31 25.1543 229.901 30.8696 238.032 30.8696C246.164 30.8696 252.754 25.1543 252.754 18.103C252.754 11.0517 246.164 5.33636 238.032 5.33636ZM238.032 24.2636C234.095 24.2636 230.928 21.5173 230.928 18.103C230.928 14.6887 234.095 11.9424 238.032 11.9424C241.97 11.9424 245.136 14.6887 245.136 18.103C245.136 21.5173 241.884 24.2636 238.032 24.2636Z" fill="white"/>
<path d="M279.288 30.9438H268.931L271.67 24.412H279.288V30.9438Z" fill="white"/>
<path d="M19.7718 0.289062C8.9016 0.289062 0 7.9342 0 17.4349C0 26.8615 8.81601 34.5066 19.7718 34.5066C30.6421 34.5066 39.5437 26.8615 39.5437 17.3607C39.5437 7.9342 30.6421 0.289062 19.7718 0.289062ZM32.4395 10.7547H22.1684L23.7091 4.74254C27.3895 5.63323 30.4709 7.85997 32.4395 10.7547ZM17.1185 4.51987L14.3795 15.5051H5.30673C6.16265 9.86404 10.9558 5.48479 17.1185 4.51987ZM5.64909 21.0719H12.9244L11.2126 28.0491C8.55923 26.3419 6.59061 23.8925 5.64909 21.0719ZM17.2041 30.2758L20.7133 16.3216H23.6235L20.0286 30.4243C19.943 30.4243 19.8574 30.4243 19.6862 30.4243C18.9159 30.4985 18.06 30.4242 17.2041 30.2758ZM27.1328 28.7171L30.2141 16.3216H34.4081C34.4081 16.6927 34.4937 16.9896 34.4937 17.3607C34.4081 22.2595 31.498 26.4903 27.1328 28.7171Z" fill="white"/>
<path d="M142.768 5.33636C134.637 5.33636 128.046 11.0517 128.046 18.103C128.046 25.1543 134.637 30.8696 142.768 30.8696C150.899 30.8696 157.49 25.1543 157.49 18.103C157.575 11.0517 150.899 5.33636 142.768 5.33636ZM142.768 27.1584C137.033 27.1584 132.326 23.076 132.326 18.103C132.326 13.1299 137.033 9.0476 142.768 9.0476C148.503 9.0476 153.21 13.1299 153.21 18.103C153.21 23.076 148.588 27.1584 142.768 27.1584Z" fill="white"/>
</svg>
