<svg width="50" height="34" viewBox="0 0 50 34" fill="none" xmlns="http://www.w3.org/2000/svg">
<path d="M32.7823 17.2534L49.4547 27.7935V6.26831L32.7823 17.2534Z" fill="white"/>
<path d="M0 6.26831V27.7935L16.6724 17.2534L0 6.26831Z" fill="white"/>
<path d="M46.3638 0H3.0909C1.54853 0 0.324531 1.14982 0.0927124 2.63037L24.7273 18.8608L49.3619 2.63037C49.1301 1.14982 47.9061 0 46.3638 0Z" fill="white"/>
<path d="M29.951 19.1205L25.5774 22.0013C25.3177 22.1713 25.0241 22.2547 24.7274 22.2547C24.4306 22.2547 24.137 22.1713 23.8774 22.0013L19.5037 19.1174L0.098938 31.3915C0.336939 32.8597 1.55476 34.0002 3.09095 34.0002H46.3638C47.9 34.0002 49.1178 32.8597 49.3558 31.3915L29.951 19.1205Z" fill="white"/>
</svg>
