<svg width="93" height="64" viewBox="0 0 93 64" fill="none" xmlns="http://www.w3.org/2000/svg">
<path d="M61.3459 32.2867L92.5453 52.0105V11.7301L61.3459 32.2867Z" fill="#181818"/>
<path d="M0 11.7301V52.0105L31.1993 32.2867L0 11.7301Z" fill="#181818"/>
<path d="M86.7613 0H5.78414C2.89789 0 0.60739 2.15168 0.173584 4.92225L46.2727 35.2945L92.3719 4.92225C91.938 2.15168 89.6476 0 86.7613 0Z" fill="#181818"/>
<path d="M56.0477 35.7803L47.8633 41.1711C47.3774 41.4892 46.8279 41.6454 46.2726 41.6454C45.7174 41.6454 45.1679 41.4892 44.682 41.1711L36.4975 35.7745L0.185059 58.7431C0.630433 61.4906 2.90936 63.6249 5.78405 63.6249H86.7612C89.6359 63.6249 91.9148 61.4906 92.3602 58.7431L56.0477 35.7803Z" fill="#181818"/>
</svg>
