<svg width="102" height="86" viewBox="0 0 102 86" fill="none" xmlns="http://www.w3.org/2000/svg">
<path d="M44.7151 86.0001C48.243 86.0001 51.103 83.607 51.103 80.6549C51.103 77.7028 48.243 75.3096 44.7151 75.3096C41.1871 75.3096 38.3271 77.7028 38.3271 80.6549C38.3271 83.607 41.1871 86.0001 44.7151 86.0001Z" fill="#181818"/>
<path d="M78.7834 86.0001C82.3114 86.0001 85.1713 83.607 85.1713 80.6549C85.1713 77.7028 82.3114 75.3096 78.7834 75.3096C75.2555 75.3096 72.3955 77.7028 72.3955 80.6549C72.3955 83.607 75.2555 86.0001 78.7834 86.0001Z" fill="#181818"/>
<path d="M101.355 23.6388C101.355 36.4103 88.9366 46.8015 73.6739 46.8015C58.4112 46.8015 45.9932 36.4103 45.9932 23.6388C45.9932 10.8672 58.4112 0.476013 73.6739 0.476013C88.9366 0.476013 101.355 10.8672 101.355 23.6388Z" fill="#1352FF"/>
<path d="M38.3272 23.6387C38.3272 23.0365 38.391 22.4485 38.4336 21.857H27.0803L25.462 15.4213C24.3292 10.9313 19.5341 7.65998 14.0533 7.64216L3.20674 7.60297C3.20248 7.60297 3.19822 7.60297 3.19396 7.60297C1.43518 7.60297 0.00855508 8.78961 3.79389e-05 10.2649C-0.0084792 11.7402 1.41814 12.9411 3.18119 12.9482L14.0235 12.9874C16.5148 12.9945 18.6952 14.4841 19.2104 16.5224L21.361 25.0784L29.069 55.7102H26.6161C21.3312 55.7102 17.0343 59.3058 17.0343 63.7281C17.0343 68.1504 21.3312 71.746 26.6161 71.746H90.4946C92.2577 71.746 93.6886 70.5486 93.6886 69.0733C93.6886 67.5981 92.2577 66.4007 90.4946 66.4007H26.6161C24.853 66.4007 23.4222 65.2034 23.4222 63.7281C23.4222 62.2528 24.853 61.0555 26.6161 61.0555H32.9997H33.0039H90.4946C92.0022 61.0555 93.3095 60.1682 93.6204 58.9316L96.4524 47.6817C90.3584 51.5837 82.7696 53.9285 74.525 53.9285C54.5651 53.9285 38.3272 40.3408 38.3272 23.6387Z" fill="#181818"/>
</svg>
