<svg width="70" height="70" viewBox="0 0 70 70" fill="none" xmlns="http://www.w3.org/2000/svg">
<path d="M38.363 33.3144C39.1636 32.9049 40.0556 32.6885 40.9809 32.6885C42.5145 32.6885 43.9562 33.2838 45.043 34.3649L47.3827 32.0256C53.1725 34.0551 59.8689 32.7558 64.4974 28.1275C68.3919 24.2331 69.9277 18.8748 69.1079 13.824C69.0175 13.2678 68.6237 12.809 68.0877 12.6359C67.5516 12.4626 66.9631 12.6035 66.5648 13.002L63.091 16.4759C60.262 19.3049 55.675 19.3049 52.846 16.4759C50.0168 13.6469 50.0168 9.05989 52.846 6.23091L56.3198 2.75703C56.7184 2.35848 56.8604 1.77002 56.6869 1.23372C56.5136 0.69718 56.0541 0.304318 55.4976 0.213986C50.4471 -0.605878 45.0886 0.930004 41.1943 4.82448C36.4971 9.52174 35.2329 16.3481 37.3933 22.196L32.319 27.2702L38.363 33.3144Z" fill="#1352FF"/>
<path d="M29.1164 42.5093L23.0979 36.4907L2.05239 57.536C-0.684129 60.2725 -0.684129 64.7092 2.05239 67.4457C4.7889 70.1822 9.2256 70.1822 11.9621 67.4457L30.1046 49.3034C28.2748 47.4638 27.945 44.6865 29.1164 42.5093Z" fill="#1352FF"/>
<path d="M42.5396 36.8905C42.1093 36.4601 41.545 36.2449 40.981 36.2449C40.417 36.2449 39.8527 36.4601 39.4224 36.8905L38.166 38.1468L15.7864 15.7672L16.8325 14.7212C17.7856 13.7683 17.6673 12.1876 16.5809 11.3877L7.45004 4.66303C6.57256 4.01696 5.35486 4.10871 4.58431 4.87926L0.707383 8.75642C-0.0631654 9.52697 -0.15492 10.7449 0.491156 11.6222L7.21556 20.753C8.01551 21.8392 9.59525 21.9587 10.5491 21.0046L11.5951 19.9583L33.9747 42.3379L32.6299 43.6827C31.769 44.5436 31.769 45.9391 32.6299 46.8L53.2756 67.4457C56.0122 70.1822 60.4489 70.1822 63.1854 67.4457C65.9219 64.7092 65.9219 60.2725 63.1854 57.536L42.5396 36.8905Z" fill="#1352FF"/>
</svg>
