<svg width="71" height="71" viewBox="0 0 71 71" fill="none" xmlns="http://www.w3.org/2000/svg">
<path d="M61.1023 0H9.64773C4.32808 0 0 4.32808 0 9.64773V61.1023C0 66.4219 4.32808 70.75 9.64773 70.75H61.1023C66.4219 70.75 70.75 66.4219 70.75 61.1023V9.64773C70.75 4.32808 66.4219 0 61.1023 0ZM35.375 57.8864C22.9636 57.8864 12.8636 47.7864 12.8636 35.375C12.8636 22.9636 22.9636 12.8636 35.375 12.8636C47.7864 12.8636 57.8864 22.9636 57.8864 35.375C57.8864 47.7864 47.7864 57.8864 35.375 57.8864ZM57.8864 19.2955C54.3405 19.2955 51.4545 16.4095 51.4545 12.8636C51.4545 9.31776 54.3405 6.43182 57.8864 6.43182C61.4322 6.43182 64.3182 9.31776 64.3182 12.8636C64.3182 16.4095 61.4322 19.2955 57.8864 19.2955Z" fill="#181818"/>
<path d="M35.375 19.2955C26.5094 19.2955 19.2954 26.5095 19.2954 35.375C19.2954 44.2405 26.5094 51.4546 35.375 51.4546C44.2405 51.4546 51.4545 44.2405 51.4545 35.375C51.4545 26.5095 44.2405 19.2955 35.375 19.2955Z" fill="#181818"/>
</svg>
