<svg width="44" height="44" viewBox="0 0 44 44" fill="none" xmlns="http://www.w3.org/2000/svg">
<path d="M37.3523 0H5.89773C2.64579 0 0 2.64579 0 5.89773V37.3523C0 40.6042 2.64579 43.25 5.89773 43.25H37.3523C40.6042 43.25 43.25 40.6042 43.25 37.3523V5.89773C43.25 2.64579 40.6042 0 37.3523 0ZM21.625 35.3864C14.0378 35.3864 7.86364 29.2122 7.86364 21.625C7.86364 14.0378 14.0378 7.86364 21.625 7.86364C29.2122 7.86364 35.3864 14.0378 35.3864 21.625C35.3864 29.2122 29.2122 35.3864 21.625 35.3864ZM35.3864 11.7955C33.2187 11.7955 31.4545 10.0313 31.4545 7.86364C31.4545 5.69602 33.2187 3.93182 35.3864 3.93182C37.554 3.93182 39.3182 5.69602 39.3182 7.86364C39.3182 10.0313 37.554 11.7955 35.3864 11.7955Z" fill="white"/>
</svg>
