<svg width="83" height="75" viewBox="0 0 83 75" fill="none" xmlns="http://www.w3.org/2000/svg">
<path d="M35.5503 50.3754L43.6407 45.3612L40.6675 40.566C42.1914 39.0295 43.4778 37.2429 44.4634 35.26L49.968 36.548L52.1322 27.2742L46.6299 25.9863C46.6252 23.7965 46.272 21.6347 45.5744 19.559L50.3837 16.5768L45.3652 8.49075L40.5578 11.471C39.0087 9.93091 37.228 8.64767 35.2659 7.67746L36.5559 2.17165L27.2852 0L26.0008 5.4893C23.7576 5.49402 21.5899 5.86487 19.5594 6.53855L16.5863 1.74888L8.49862 6.76704L11.4694 11.5543C9.94547 13.092 8.65789 14.8771 7.67235 16.86L2.17401 15.57L0 24.8438L5.50581 26.1361C5.50817 28.3258 5.86251 30.4877 6.56136 32.5598L1.75085 35.5412L6.76586 43.634L11.5787 40.6518C13.1259 42.1903 14.9042 43.4739 16.8647 44.4477L15.5748 49.9543L24.8462 52.1255L26.1337 46.6303C28.3758 46.6256 30.5447 46.2536 32.5751 45.5795L35.5503 50.3754ZM15.3081 23.5417C16.4868 18.5161 20.9044 15.0049 26.0531 15.0049C26.9006 15.0049 27.7548 15.1024 28.5905 15.2979C31.4661 15.9696 33.9032 17.726 35.4594 20.2303C37.0168 22.7363 37.5029 25.7023 36.8284 28.5779C35.6498 33.6024 31.2298 37.1139 26.081 37.1139C25.2339 37.1139 24.3817 37.014 23.5436 36.819C20.6704 36.1508 18.2333 34.3932 16.6748 31.8873C15.1178 29.3798 14.6341 26.4149 15.3081 23.5417ZM67.7302 56.5215L69.8267 55.2221L66.0678 49.1504L63.9638 50.4525C63.3688 49.9271 62.725 49.4619 62.0277 49.0576L62.5928 46.6543L55.6398 45.0222L55.0821 47.4051C54.2685 47.4542 53.478 47.584 52.7064 47.7889L51.4184 45.7156L45.3514 49.4815L46.6209 51.5222C46.0931 52.1263 45.6401 52.7956 45.2307 53.5023L42.86 52.9518L41.2283 59.9021L43.6273 60.4625C43.6784 61.262 43.8039 62.0434 44.0111 62.8194L41.9217 64.1168L45.6872 70.1838L47.7747 68.8868C48.3792 69.4193 49.0253 69.8814 49.7179 70.2813L49.1551 72.6803L56.1082 74.308L56.6635 71.9276C57.4772 71.876 58.2676 71.751 59.0392 71.5461L60.3268 73.6218L66.3942 69.8586L65.1247 67.8128C65.6572 67.2087 66.1103 66.5393 66.5146 65.8326L68.8856 66.3856L70.5173 59.4329L68.116 58.8725C68.0625 58.0675 67.937 57.286 67.7302 56.5215ZM60.9262 60.8522C60.282 63.5953 57.4882 65.3666 54.6916 64.7153C53.3478 64.3968 52.1994 63.5764 51.4719 62.4001C50.7396 61.2286 50.5162 59.8384 50.8277 58.4855C51.381 56.1263 53.4571 54.4733 55.8671 54.4733C56.2671 54.4733 56.6619 54.5249 57.0528 54.613C59.8431 55.278 61.577 58.0675 60.9262 60.8522ZM78.6391 33.2819L81.8978 34.0432L82.986 29.4093L79.7364 28.6491C79.7596 27.3309 79.5433 26.0248 79.0993 24.7868L81.9403 23.0226L79.4273 18.9789L76.5886 20.74C75.6731 19.7973 74.5987 19.0234 73.4086 18.4571L74.1712 15.2086L69.5361 14.1208L68.7782 17.3622C68.722 17.3622 68.6618 17.3531 68.604 17.3531C67.309 17.3531 66.0607 17.5742 64.8962 17.9843L63.1548 15.1681L59.1081 17.6737L60.8695 20.5213C59.9402 21.4278 59.1635 22.4912 58.5941 23.699L55.3326 22.9364L54.2496 27.5715L57.4945 28.3306C57.4713 29.6496 57.6872 30.9537 58.1312 32.1941L55.2953 33.9559L57.8083 37.9972L60.6418 36.2389C61.5601 37.1812 62.6318 37.9567 63.8218 38.5226L63.064 41.7726L67.6944 42.8608L68.4565 39.6155C68.5147 39.6155 68.573 39.6246 68.6288 39.6246C69.9211 39.6246 71.1674 39.4035 72.3342 38.9945L74.0799 41.8143L78.122 39.2989L76.3601 36.4571C77.291 35.555 78.065 34.488 78.6391 33.2819ZM62.4092 27.0379C63.0927 24.1371 65.6356 22.1137 68.6068 22.1137C69.0972 22.1137 69.59 22.1707 70.0713 22.2824C71.7309 22.6729 73.1349 23.6817 74.032 25.1274C74.9294 26.5722 75.213 28.283 74.8224 29.9426C74.032 33.3157 70.5869 35.5007 67.1611 34.6882C65.5058 34.3 64.0975 33.2889 63.2001 31.8441C62.3022 30.3992 62.0234 28.692 62.4092 27.0379Z" fill="#1352FF"/>
</svg>
