<svg width="108" height="97" viewBox="0 0 108 97" fill="none" xmlns="http://www.w3.org/2000/svg">
<path d="M46.8299 65.2036L57.2628 58.7376L53.4288 52.554C55.394 50.5726 57.0529 48.2686 58.3238 45.7116L65.4222 47.3725L68.213 35.4136L61.1176 33.7527C61.1115 30.9289 60.6561 28.1412 59.7564 25.4645L65.9583 21.6188L59.4866 11.1915L53.2873 15.0346C51.2897 13.0487 48.9934 11.3938 46.4632 10.1427L48.1267 3.04275L36.1718 0.24231L34.5155 7.32099C31.6228 7.32708 28.8274 7.80531 26.209 8.67405L22.375 2.49757L11.9457 8.9687L15.7766 15.1421C13.8114 17.1251 12.1511 19.427 10.8802 21.984L3.78981 20.3206L0.986328 32.2795L8.08631 33.9459C8.08935 36.7697 8.54629 39.5575 9.44748 42.2296L3.24412 46.0742L9.71119 56.5102L15.9176 52.6645C17.9127 54.6485 20.206 56.3038 22.7341 57.5595L21.0707 64.6605L33.0265 67.4604L34.6869 60.3741C37.5781 60.368 40.375 59.8883 42.9934 59.019L46.8299 65.2036ZM20.7268 30.6003C22.2467 24.1196 27.9434 19.5918 34.5829 19.5918C35.6758 19.5918 36.7773 19.7176 37.855 19.9696C41.5632 20.8358 44.706 23.1007 46.7128 26.3302C48.721 29.5617 49.3479 33.3866 48.4781 37.0948C46.9582 43.574 41.2585 48.1023 34.619 48.1023C33.5266 48.1023 32.4276 47.9735 31.3469 47.7219C27.6417 46.8603 24.4989 44.5939 22.4891 41.3624C20.4814 38.1288 19.8576 34.3055 20.7268 30.6003ZM88.3273 73.1292L91.0309 71.4536L86.1836 63.6239L83.4704 65.303C82.7031 64.6255 81.8729 64.0255 80.9737 63.5042L81.7025 60.405L72.7362 58.3004L72.0171 61.3732C70.9678 61.4366 69.9485 61.6039 68.9535 61.8681L67.2926 59.1945L59.4689 64.0509L61.1059 66.6824C60.4254 67.4614 59.8411 68.3246 59.3132 69.2359L56.2562 68.5259L54.152 77.4886L57.2456 78.2113C57.3115 79.2423 57.4733 80.25 57.7406 81.2506L55.0461 82.9237L59.902 90.7473L62.5939 89.0748C63.3734 89.7614 64.2066 90.3573 65.0997 90.8731L64.374 93.9667L73.3402 96.0657L74.0563 92.996C75.1056 92.9296 76.125 92.7683 77.12 92.5041L78.7803 95.1808L86.6045 90.3279L84.9675 87.6898C85.6541 86.9108 86.2384 86.0476 86.7597 85.1363L89.8173 85.8493L91.9214 76.8836L88.8248 76.1609C88.7558 75.1228 88.594 74.1151 88.3273 73.1292ZM79.5532 78.7139C78.7225 82.2512 75.1198 84.5353 71.5135 83.6955C69.7806 83.2847 68.2998 82.2268 67.3615 80.71C66.4172 79.1992 66.1292 77.4065 66.5308 75.6619C67.2444 72.6195 69.9216 70.488 73.0294 70.488C73.5451 70.488 74.0543 70.5545 74.5584 70.6681C78.1566 71.5256 80.3925 75.1228 79.5532 78.7139ZM102.395 43.1607L106.597 44.1425L108 38.1669L103.81 37.1866C103.84 35.4866 103.561 33.8024 102.988 32.2059L106.652 29.9309L103.411 24.7165L99.7506 26.9874C98.57 25.7718 97.1845 24.7738 95.6499 24.0435L96.6333 19.8545L90.6561 18.4517L89.6788 22.6316C89.6063 22.6316 89.5287 22.6199 89.4542 22.6199C87.7841 22.6199 86.1745 22.905 84.6728 23.4339L82.4272 19.8023L77.2087 23.0333L79.4802 26.7055C78.2818 27.8744 77.2802 29.2457 76.5459 30.8032L72.3401 29.8198L70.9435 35.797L75.1279 36.7758C75.098 38.4767 75.3764 40.1584 75.949 41.7579L72.292 44.0299L75.5326 49.2413L79.1866 46.9739C80.3707 48.189 81.7527 49.1891 83.2873 49.9189L82.3101 54.1099L88.2811 55.5131L89.264 51.3282C89.339 51.3282 89.4141 51.3399 89.4861 51.3399C91.1526 51.3399 92.7597 51.0549 94.2644 50.5274L96.5156 54.1636L101.728 50.92L99.456 47.2554C100.656 46.092 101.654 44.7161 102.395 43.1607ZM81.4657 35.1088C82.3471 31.3681 85.6263 28.7589 89.4577 28.7589C90.0901 28.7589 90.7256 28.8324 91.3463 28.9765C93.4864 29.48 95.2969 30.7809 96.4537 32.6451C97.611 34.5084 97.9767 36.7144 97.4731 38.8546C96.4537 43.2043 92.0112 46.022 87.5935 44.9742C85.4589 44.4737 83.6428 43.1698 82.4855 41.3066C81.3277 39.4433 80.9682 37.2419 81.4657 35.1088Z" fill="#181818"/>
</svg>
