<svg width="65" height="73" viewBox="0 0 65 73" fill="none" xmlns="http://www.w3.org/2000/svg">
<path d="M51.3888 14.3937C52.2415 14.3937 52.9353 13.6999 52.9353 12.8472C52.9353 11.9944 52.2415 11.3008 51.3888 11.3008C50.536 11.3008 49.8424 11.9944 49.8424 12.8472C49.8424 13.6999 50.536 14.3937 51.3888 14.3937Z" fill="#1352FF"/>
<path d="M12.8464 25.8771C15.0015 25.8771 17.0327 25.3462 18.8163 24.4082C22.2639 22.595 28.2464 21.5947 32.1418 21.5947C36.0372 21.5947 41.9719 22.595 45.4195 24.4082C47.2031 25.3462 49.2343 25.8771 51.3895 25.8771C58.5151 25.8771 64.285 20.0757 64.2355 12.9385C64.2852 5.80136 58.5152 0 51.3896 0C49.2343 0 47.2033 0.530874 45.4197 1.469C41.9719 3.28203 36.0372 4.28239 32.1418 4.28239C28.2464 4.28239 22.2639 3.28203 18.8163 1.469C17.0327 0.530874 15.0015 0 12.8464 0C5.72074 0 -0.0492165 5.80136 0.000316548 12.9385C-0.0492165 20.0757 5.72074 25.8771 12.8464 25.8771ZM51.3887 8.20792C53.9469 8.20792 56.028 10.2892 56.028 12.8472C56.028 15.4052 53.9469 17.4864 51.3887 17.4864C48.8306 17.4864 46.7495 15.4052 46.7495 12.8472C46.7495 10.2892 48.8306 8.20792 51.3887 8.20792ZM12.8472 8.20792C15.4054 8.20792 17.4865 10.2892 17.4865 12.8472C17.4865 15.4052 15.4054 17.4864 12.8472 17.4864C10.2891 17.4864 8.20795 15.4052 8.20795 12.8472C8.20795 10.2892 10.2891 8.20792 12.8472 8.20792Z" fill="#1352FF"/>
<path d="M12.8472 14.3937C13.7 14.3937 14.3937 13.6999 14.3937 12.8472C14.3937 11.9944 13.7001 11.3008 12.8472 11.3008C11.9945 11.3008 11.3007 11.9944 11.3007 12.8472C11.3007 13.6999 11.9945 14.3937 12.8472 14.3937Z" fill="#1352FF"/>
<path d="M49.2466 61.4985C50.1006 61.4985 50.7929 60.8062 50.7929 59.9521C50.7929 59.0981 50.1006 58.4058 49.2466 58.4058C48.3925 58.4058 47.7002 59.0981 47.7002 59.9521C47.7002 60.8062 48.3925 61.4985 49.2466 61.4985Z" fill="#1352FF"/>
<path d="M12.8472 52.9341C13.7014 52.9341 14.3937 52.2417 14.3937 51.3876C14.3937 50.5335 13.7014 49.8411 12.8472 49.8411C11.9931 49.8411 11.3007 50.5335 11.3007 51.3876C11.3007 52.2417 11.9931 52.9341 12.8472 52.9341Z" fill="#1352FF"/>
<path d="M52.998 47.3174C50.9084 46.7897 48.8091 46.8071 46.8502 47.2797C43.0636 48.1936 39.1182 48.2289 35.3414 47.2752C31.5645 46.3213 24.3673 44.417 21.4685 41.8148C19.9688 40.4686 18.1295 39.4565 16.0399 38.9288C9.13107 37.184 2.11637 41.396 0.416831 48.3281C-1.37878 55.2359 2.79499 62.2734 9.70377 64.0182C11.7933 64.5459 13.8927 64.5285 15.8516 64.0557C19.6382 63.142 25.7016 63.1066 29.4784 64.0604C33.2554 65.0143 38.3346 66.9186 41.2333 69.5208C42.733 70.867 44.5723 71.8789 46.6618 72.4068C53.5706 74.1516 60.5853 69.9396 62.285 63.0075C64.0806 56.0998 59.9068 49.0621 52.998 47.3174ZM12.8472 56.0268C10.289 56.0268 8.20793 53.9456 8.20793 51.3876C8.20793 48.8295 10.289 46.7483 12.8472 46.7483C15.4053 46.7483 17.4864 48.8295 17.4864 51.3876C17.4864 53.9456 15.4053 56.0268 12.8472 56.0268ZM49.2465 64.5916C46.6884 64.5916 44.6073 62.5104 44.6073 59.9523C44.6073 57.3943 46.6884 55.3131 49.2465 55.3131C51.8047 55.3131 53.8858 57.3943 53.8858 59.9523C53.8858 62.5104 51.8047 64.5916 49.2465 64.5916Z" fill="#1352FF"/>
<path d="M21.8763 36.799C21.2425 33.6678 21.2788 30.6338 21.8559 27.7222C20.4273 28.2933 17.648 30.1594 12.8463 30.1594C10.5133 30.1594 8.25303 29.6959 6.16865 28.8138C6.50895 31.0874 6.50881 33.3388 6.1665 35.6218C11.2733 33.4462 17.1261 33.8794 21.8763 36.799Z" fill="#1352FF"/>
</svg>
