<svg width="36" height="37" viewBox="0 0 36 37" fill="none" xmlns="http://www.w3.org/2000/svg">
<path d="M21.832 19.6263L24.0943 21.8547L21.879 23.9487L19.6167 21.7203C20.4728 21.1484 21.2219 20.4404 21.832 19.6263Z" fill="#C4C4C4"/>
<path d="M23.5518 21.3203C23.6987 21.1815 23.8967 21.1046 24.1024 21.1066C24.308 21.1087 24.5043 21.1895 24.6482 21.3312L28.9883 25.6064C29.2131 25.8266 29.3883 26.0893 29.503 26.3779C29.6177 26.6665 29.6693 26.9748 29.6547 27.2836C29.6401 27.5924 29.5595 27.8949 29.418 28.1723C29.2766 28.4496 29.0773 28.6957 28.8326 28.8952C28.3576 29.2577 27.7585 29.4345 27.1546 29.3902C26.5507 29.346 25.9861 29.0841 25.5732 28.6565L21.3253 24.4722C21.1814 24.3305 21.1018 24.1394 21.1039 23.941C21.106 23.7426 21.1897 23.5531 21.3366 23.4143L23.5518 21.3203Z" fill="#C4C4C4"/>
<path d="M21.3581 21.2988C20.9551 21.679 20.5205 22.0268 20.0587 22.3386C17.9838 23.7302 15.4429 24.3189 12.9394 23.9881C10.4358 23.6573 8.15245 22.4312 6.54159 20.5526C4.93073 18.674 4.10995 16.2801 4.24186 13.8452C4.37378 11.4102 5.44878 9.11192 7.25385 7.40566C9.05893 5.6994 11.4624 4.70967 13.988 4.63257C16.5136 4.55548 18.977 5.39664 20.8903 6.9894C22.8035 8.58215 24.0269 10.8103 24.3181 13.2323C24.6092 15.6543 23.9469 18.0935 22.4623 20.0666C22.1297 20.5057 21.7604 20.9178 21.3581 21.2988ZM8.3376 8.47318C6.81897 9.91888 5.91701 11.8613 5.80969 13.9172C5.70236 15.9731 6.39746 17.9931 7.75785 19.5787C9.11823 21.1644 11.0451 22.2004 13.1583 22.4825C15.2714 22.7646 17.4174 22.2722 19.1728 21.1025C19.9574 20.5808 20.6431 19.9326 21.1998 19.1865C22.4479 17.5171 23.0023 15.4569 22.7536 13.4125C22.5048 11.368 21.4711 9.48777 19.8562 8.14269C18.2413 6.79762 16.1626 6.08541 14.0303 6.14659C11.8979 6.20777 9.8668 7.0379 8.3376 8.47318Z" fill="#C4C4C4"/>
</svg>
