<svg width="51" height="64" viewBox="0 0 51 64" fill="none" xmlns="http://www.w3.org/2000/svg">
<path d="M50.7344 20.4766C50.7344 19.9392 50.5293 19.4222 50.161 19.0308L33.286 1.10111C32.8874 0.677688 32.3316 0.4375 31.75 0.4375H10.6562C10.0538 0.4375 9.48006 0.695125 9.0797 1.14541L0.642203 10.6376C0.299078 11.0237 0.109375 11.5224 0.109375 12.0391V49.2344C0.109375 50.8535 0.720672 52.3328 1.72459 53.4531C0.720672 54.5735 0.109375 56.0527 0.109375 57.6719C0.109375 61.1612 2.94817 64 6.4375 64H44.4062C47.8956 64 50.7344 61.1612 50.7344 57.6719C50.7344 56.0527 50.1231 54.5735 49.1192 53.4531C50.1232 52.3328 50.7344 50.8535 50.7344 49.2344V20.4766ZM25.4219 51.3432C21.9325 51.3432 19.0938 48.5044 19.0938 45.0151C19.0938 44.1463 19.342 42.5634 21.4879 38.8641C22.5718 36.9955 23.6413 35.4438 23.6863 35.3787C24.0802 34.8086 24.7289 34.4682 25.4219 34.4682C26.1149 34.4682 26.7636 34.8085 27.1575 35.3787C27.2025 35.4438 28.2719 36.9955 29.3559 38.8641C31.5018 42.5635 31.75 44.1463 31.75 45.0151C31.75 48.5044 28.9112 51.3432 25.4219 51.3432ZM40.9718 26.4572C40.156 27.2256 39.1178 27.6046 38.0797 27.6046C36.9571 27.6046 35.8384 27.1596 35.0083 26.2779L25.3203 15.9844C23.7219 14.2871 23.8043 11.6173 25.4995 10.021C27.199 8.42444 29.8707 8.50488 31.463 10.2001L41.1509 20.4936C42.7494 22.1911 42.667 24.8607 40.9718 26.4572Z" fill="white"/>
<path d="M23.3125 45.0176C23.3125 46.1783 24.2588 47.1245 25.4219 47.1245C26.5844 47.1245 27.5303 46.1791 27.5312 45.0169C27.5132 44.3697 26.6365 42.5323 25.4223 40.4872C24.2072 42.5344 23.3297 44.3727 23.3125 45.0176Z" fill="white"/>
</svg>
