<svg width="57" height="57" viewBox="0 0 57 57" fill="none" xmlns="http://www.w3.org/2000/svg">
<path d="M31.3659 27.2381C32.0205 26.9033 32.7498 26.7264 33.5064 26.7264C34.7602 26.7264 35.939 27.2131 36.8276 28.0971L38.7405 26.1844C43.4742 27.8437 48.9493 26.7814 52.7336 22.9973C55.9177 19.8131 57.1735 15.4322 56.5032 11.3026C56.4293 10.8479 56.1073 10.4728 55.669 10.3312C55.2308 10.1895 54.7496 10.3047 54.424 10.6306L51.5837 13.4708C49.2707 15.7838 45.5203 15.7838 43.2073 13.4708C40.8941 11.1578 40.8941 7.40744 43.2073 5.09444L46.0476 2.25417C46.3734 1.92831 46.4895 1.44718 46.3477 1.0087C46.2059 0.57002 45.8303 0.248813 45.3753 0.174957C41.246 -0.49537 36.8648 0.760379 33.6808 3.94453C29.8403 7.78505 28.8067 13.3663 30.5731 18.1476L26.4243 22.2963L31.3659 27.2381Z" fill="white"/>
<path d="M23.8058 34.7559L18.885 29.8351L1.67805 47.0418C-0.559349 49.2792 -0.559349 52.9067 1.67805 55.1441C3.91544 57.3815 7.54293 57.3815 9.78032 55.1441L24.6138 40.3108C23.1177 38.8068 22.848 36.536 23.8058 34.7559Z" fill="white"/>
<path d="M34.781 30.1619C34.4292 29.8101 33.9678 29.6341 33.5067 29.6341C33.0455 29.6341 32.5842 29.8101 32.2323 30.1619L31.2051 31.1891L12.9074 12.8914L13.7626 12.0361C14.5419 11.257 14.4452 9.96466 13.557 9.31062L6.09149 3.8125C5.37406 3.28426 4.37846 3.35928 3.74845 3.98929L0.578642 7.15929C-0.051365 7.78929 -0.126384 8.78509 0.401852 9.50233L5.89978 16.9678C6.55382 17.8558 7.84543 17.9535 8.62528 17.1735L9.48054 16.318L27.7783 34.6158L26.6788 35.7153C25.9749 36.4191 25.9749 37.5601 26.6788 38.264L43.5589 55.1441C45.7963 57.3815 49.4238 57.3815 51.6612 55.1441C53.8985 52.9067 53.8985 49.2792 51.6612 47.0418L34.781 30.1619Z" fill="white"/>
</svg>
