<svg width="56" height="64" viewBox="0 0 56 64" fill="none" xmlns="http://www.w3.org/2000/svg">
<path d="M44.6115 12.4954C45.3518 12.4954 45.954 11.8932 45.954 11.1529C45.954 10.4126 45.3518 9.81042 44.6115 9.81042C43.8712 9.81042 43.269 10.4126 43.269 11.1529C43.269 11.8932 43.8712 12.4954 44.6115 12.4954Z" fill="white"/>
<path d="M11.1521 22.4643C13.0231 22.4643 14.7864 22.0035 16.3347 21.1892C19.3277 19.6151 24.5212 18.7467 27.9029 18.7467C31.2845 18.7467 36.4365 19.6151 39.4294 21.1892C40.9778 22.0035 42.7411 22.4643 44.6121 22.4643C50.7979 22.4643 55.8069 17.4281 55.7639 11.2322C55.807 5.03626 50.798 0 44.6122 0C42.7411 0 40.978 0.460861 39.4296 1.27527C36.4365 2.84918 31.2845 3.71762 27.9029 3.71762C24.5212 3.71762 19.3277 2.84918 16.3347 1.27527C14.7864 0.460861 13.0231 0 11.1521 0C4.96627 0 -0.0427256 5.03626 0.000274801 11.2322C-0.0427256 17.4281 4.96627 22.4643 11.1521 22.4643ZM44.6114 7.12543C46.8322 7.12543 48.6389 8.93219 48.6389 11.1529C48.6389 13.3735 46.8322 15.1803 44.6114 15.1803C42.3907 15.1803 40.584 13.3735 40.584 11.1529C40.584 8.93219 42.3907 7.12543 44.6114 7.12543ZM11.1529 7.12543C13.3737 7.12543 15.1803 8.93219 15.1803 11.1529C15.1803 13.3735 13.3737 15.1803 11.1529 15.1803C8.9321 15.1803 7.12546 13.3735 7.12546 11.1529C7.12546 8.93219 8.9321 7.12543 11.1529 7.12543Z" fill="white"/>
<path d="M11.1531 12.4954C11.8934 12.4954 12.4957 11.8932 12.4957 11.1529C12.4957 10.4126 11.8935 9.81042 11.1531 9.81042C10.4128 9.81042 9.81055 10.4126 9.81055 11.1529C9.81055 11.8932 10.4128 12.4954 11.1531 12.4954Z" fill="white"/>
<path d="M42.7516 53.388C43.493 53.388 44.094 52.787 44.094 52.0456C44.094 51.3042 43.493 50.7031 42.7516 50.7031C42.0102 50.7031 41.4092 51.3042 41.4092 52.0456C41.4092 52.787 42.0102 53.388 42.7516 53.388Z" fill="white"/>
<path d="M11.1531 45.9529C11.8946 45.9529 12.4957 45.3518 12.4957 44.6104C12.4957 43.8689 11.8946 43.2678 11.1531 43.2678C10.4116 43.2678 9.81055 43.8689 9.81055 44.6104C9.81055 45.3518 10.4116 45.9529 11.1531 45.9529Z" fill="white"/>
<path d="M46.0085 41.077C44.1944 40.6188 42.372 40.634 40.6715 41.0443C37.3842 41.8376 33.9592 41.8682 30.6805 41.0403C27.4017 40.2123 21.1536 38.559 18.6372 36.3001C17.3353 35.1314 15.7385 34.2528 13.9245 33.7947C7.92684 32.28 1.83726 35.9365 0.361858 41.9543C-1.19694 47.9511 2.42637 54.0605 8.42401 55.5752C10.238 56.0333 12.0605 56.0182 13.761 55.6078C17.0483 54.8146 22.312 54.7838 25.5907 55.6119C28.8695 56.4399 33.2789 58.0931 35.7953 60.3521C37.0972 61.5208 38.694 62.3992 40.5079 62.8575C46.5055 64.3722 52.5951 60.7157 54.0706 54.6978C55.6294 48.7011 52.0061 42.5915 46.0085 41.077ZM11.1529 48.6377C8.93208 48.6377 7.12544 46.831 7.12544 44.6103C7.12544 42.3897 8.93208 40.5829 11.1529 40.5829C13.3736 40.5829 15.1803 42.3897 15.1803 44.6103C15.1803 46.831 13.3736 48.6377 11.1529 48.6377ZM42.7517 56.073C40.531 56.073 38.7243 54.2662 38.7243 52.0456C38.7243 49.8249 40.531 48.0181 42.7517 48.0181C44.9725 48.0181 46.7792 49.8249 46.7792 52.0456C46.7792 54.2662 44.9725 56.073 42.7517 56.073Z" fill="white"/>
<path d="M18.991 31.9458C18.4408 29.2276 18.4722 26.5936 18.9733 24.066C17.7331 24.5618 15.3203 26.1819 11.1519 26.1819C9.12653 26.1819 7.16437 25.7795 5.35489 25.0137C5.65031 26.9875 5.65019 28.9419 5.35303 30.9238C9.78629 29.0351 14.8673 29.4112 18.991 31.9458Z" fill="white"/>
</svg>
