<svg width="40" height="35" viewBox="0 0 40 35" fill="none" xmlns="http://www.w3.org/2000/svg">
<path d="M17.5 34.9763C18.8807 34.9763 20 34.0057 20 32.8084C20 31.6111 18.8807 30.6404 17.5 30.6404C16.1193 30.6404 15 31.6111 15 32.8084C15 34.0057 16.1193 34.9763 17.5 34.9763Z" fill="white"/>
<path d="M30.8331 34.9763C32.2138 34.9763 33.3331 34.0057 33.3331 32.8084C33.3331 31.6111 32.2138 30.6404 30.8331 30.6404C29.4524 30.6404 28.3331 31.6111 28.3331 32.8084C28.3331 34.0057 29.4524 34.9763 30.8331 34.9763Z" fill="white"/>
<path d="M39.6665 9.68353C39.6665 14.8635 34.8065 19.078 28.8333 19.078C22.86 19.078 18 14.8635 18 9.68353C18 4.50357 22.86 0.289062 28.8333 0.289062C34.8065 0.289062 39.6665 4.50357 39.6665 9.68353Z" fill="#1352FF"/>
<path d="M14.9999 9.68355C14.9999 9.4393 15.0249 9.20082 15.0416 8.9609H10.5983L9.96494 6.35068C9.52161 4.5296 7.64495 3.20281 5.49997 3.19559L1.255 3.17969C1.25334 3.17969 1.25167 3.17969 1.25 3.17969C0.561677 3.17969 0.00334815 3.66097 1.48479e-05 4.25933C-0.00331846 4.85768 0.55501 5.34475 1.245 5.34764L5.4883 5.36354C6.4633 5.36643 7.31662 5.97057 7.51829 6.79728L8.35995 10.2675L11.3766 22.6913H10.4166C8.34828 22.6913 6.66663 24.1496 6.66663 25.9432C6.66663 27.7368 8.34828 29.1951 10.4166 29.1951H35.4164C36.1064 29.1951 36.6664 28.7095 36.6664 28.1112C36.6664 27.5128 36.1064 27.0272 35.4164 27.0272H10.4166C9.7266 27.0272 9.16661 26.5416 9.16661 25.9432C9.16661 25.3449 9.7266 24.8592 10.4166 24.8592H12.9149H12.9166H35.4164C36.0064 24.8592 36.5181 24.4994 36.6397 23.9978L37.748 19.435C35.3631 21.0176 32.3931 21.9686 29.1664 21.9686C21.3548 21.9686 14.9999 16.4577 14.9999 9.68355Z" fill="white"/>
</svg>
