<svg width="76" height="76" viewBox="0 0 76 76" fill="none" xmlns="http://www.w3.org/2000/svg">
<path d="M38.0095 0H37.9905C17.0383 0 0 17.043 0 38C0 46.3125 2.679 54.017 7.23425 60.2728L2.4985 74.3897L17.1047 69.7205C23.1135 73.701 30.2812 76 38.0095 76C58.9618 76 76 58.9522 76 38C76 17.0478 58.9618 0 38.0095 0ZM60.1207 53.6608C59.204 56.2495 55.5655 58.3965 52.6632 59.0235C50.6777 59.4462 48.0843 59.7835 39.3537 56.164C28.1865 51.5375 20.995 40.1898 20.4345 39.4535C19.8978 38.7172 15.922 33.4448 15.922 27.9918C15.922 22.5387 18.6912 19.8835 19.8075 18.7435C20.7243 17.8078 22.2395 17.3802 23.693 17.3802C24.1632 17.3802 24.586 17.404 24.966 17.423C26.0823 17.4705 26.6427 17.537 27.379 19.2993C28.2957 21.508 30.5282 26.961 30.7942 27.5215C31.065 28.082 31.3358 28.842 30.9558 29.5783C30.5995 30.3383 30.286 30.6755 29.7255 31.3215C29.165 31.9675 28.633 32.4615 28.0725 33.155C27.5595 33.7583 26.98 34.4043 27.626 35.5205C28.272 36.613 30.5045 40.2562 33.7915 43.1822C38.0332 46.9585 41.4722 48.165 42.7025 48.678C43.6192 49.058 44.7118 48.9678 45.3815 48.2553C46.2318 47.3385 47.2815 45.8185 48.3503 44.3223C49.1102 43.2488 50.0698 43.1157 51.0768 43.4957C52.1028 43.852 57.532 46.5357 58.6483 47.0915C59.7645 47.652 60.5007 47.918 60.7715 48.3883C61.0375 48.8585 61.0375 51.0672 60.1207 53.6608Z" fill="#181818"/>
</svg>
